<?xml version="1.0" encoding="UTF-8"?><svg xmlns="http://www.w3.org/2000/svg" xmlns:xlink="http://www.w3.org/1999/xlink" width="64px" height="64px" viewBox="0 0 64 64" version="1.1"><title>gear</title><defs><path id="path-1" d="M.06 64V.04H64V64z"/></defs><g id="Page-1" stroke="none" stroke-width="1" fill="none" fill-rule="evenodd"><g id="gear"><g id="Group-3"><mask id="mask-2" fill="#fff"><use xlink:href="#path-1"/></mask><path d="M64 32c0 17.673-14.327 32-32 32C14.327 64 0 49.673 0 32 0 14.327 14.327 0 32 0c17.673 0 32 14.327 32 32" id="Fill-1" fill="#73BBA3" mask="url(#mask-2)"/></g><path d="M32 38.5a4.5 4.5 0 1 1 0-9 4.5 4.5 0 0 1 0 9" id="Fill-4" fill="#629986"/><path d="M32 56c-.819 0-1.424-.052-1.424-.052-.548-.047-1.147-.509-1.331-1.028l-1.469-4.13c-.185-.518-.761-1.09-1.28-1.271l-1.581-.651c-.249-.12-.578-.18-.907-.18-.325 0-.65.059-.897.176l-3.944 1.875a1.417 1.417 0 0 1-.604.125c-.383 0-.782-.128-1.044-.363l-2.017-2.017c-.367-.41-.474-1.151-.238-1.648l1.875-3.944c.236-.497.234-1.309-.004-1.805l-.652-1.58c-.181-.52-.753-1.096-1.271-1.28l-4.13-1.469c-.518-.184-.981-.784-1.029-1.332 0 0-.053-.607-.053-1.426s.053-1.427.053-1.427c.048-.547.511-1.147 1.029-1.331l4.128-1.469c.518-.184 1.09-.76 1.27-1.28l.652-1.58c.239-.496.24-1.308.004-1.805l-1.875-3.944c-.236-.497-.129-1.238.238-1.648l2.017-2.017c.263-.235.661-.364 1.044-.364.215 0 .426.041.604.126l3.947 1.875c.247.117.572.176.897.176.329 0 .658-.06.907-.18l1.578-.651c.52-.181 1.096-.753 1.28-1.271l1.469-4.128c.184-.518.783-.981 1.331-1.029 0 0 .608-.053 1.427-.053.819 0 1.427.053 1.427.053.547.048 1.147.511 1.331 1.029l1.469 4.128c.184.518.76 1.09 1.28 1.27l1.58.652c.249.12.579.18.907.18.326 0 .651-.059.898-.176l3.944-1.875c.178-.085.389-.125.604-.125.383 0 .781.128 1.044.363l2.017 2.017c.367.41.474 1.151.238 1.648l-1.875 3.944c-.236.497-.234 1.309.004 1.805l.652 1.58c.181.52.752 1.096 1.27 1.28l4.128 1.469c.518.184.981.784 1.029 1.331 0 0 .053.608.053 1.427 0 .819-.052 1.424-.052 1.424-.047.548-.51 1.147-1.028 1.331l-4.13 1.469c-.518.185-1.09.761-1.271 1.28l-.651 1.58c-.238.496-.24 1.308-.004 1.805l1.875 3.944c.236.497.129 1.238-.238 1.648l-2.017 2.018c-.262.234-.661.363-1.044.363-.215 0-.425-.041-.604-.126l-3.944-1.875c-.247-.117-.572-.176-.898-.176-.328 0-.658.06-.907.18l-1.58.652c-.52.181-1.096.752-1.28 1.271l-1.469 4.13c-.184.518-.784.981-1.331 1.029 0 0-.608.053-1.427.053m0-32c-5.522 0-10 4.478-10 10 0 5.523 4.478 10 10 10s10-4.477 10-10c0-5.522-4.478-10-10-10" id="Fill-5" fill="#629986"/><path d="M27.5 32a4.5 4.5 0 1 0 9 0 4.5 4.5 0 0 0-9 0" id="Fill-6" fill="#4C5665"/><path d="M32 42c-5.522 0-10-4.478-10-10s4.478-10 10-10 10 4.478 10 10-4.478 10-10 10zm21.947-11.427c-.048-.548-.511-1.147-1.029-1.331l-4.128-1.469c-.518-.184-1.089-.76-1.27-1.28l-.652-1.58c-.238-.496-.24-1.308-.004-1.805l1.875-3.944c.236-.497.129-1.238-.238-1.648l-2.017-2.017c-.41-.367-1.151-.474-1.648-.238l-3.944 1.875c-.497.236-1.309.234-1.805-.004l-1.58-.652c-.52-.18-1.096-.752-1.28-1.27l-1.469-4.128c-.184-.518-.784-.981-1.331-1.029 0 0-.608-.053-1.427-.053-.819 0-1.427.053-1.427.053-.548.048-1.147.511-1.331 1.029l-1.469 4.128c-.184.518-.76 1.09-1.28 1.271l-1.577.651c-.496.238-1.308.24-1.805.004l-3.947-1.875c-.497-.236-1.238-.129-1.648.238l-2.017 2.017c-.367.41-.474 1.151-.238 1.648l1.875 3.944c.236.497.235 1.309-.004 1.805l-.652 1.58c-.18.52-.752 1.096-1.27 1.28l-4.128 1.469c-.518.184-.981.783-1.029 1.331 0 0-.053.608-.053 1.427 0 .819.053 1.426.053 1.426.048.548.511 1.147 1.029 1.332l4.13 1.469c.518.184 1.09.76 1.271 1.28l.652 1.58c.238.496.24 1.308.004 1.805l-1.875 3.944c-.236.497-.129 1.238.238 1.648l2.017 2.017c.41.367 1.151.474 1.648.238l3.944-1.875c.497-.236 1.309-.234 1.805.004l1.58.652c.519.18 1.095.752 1.28 1.27l1.469 4.13c.184.518.783.981 1.331 1.028 0 0 .605.052 1.424.052s1.427-.053 1.427-.053c.547-.048 1.147-.511 1.331-1.029l1.469-4.13c.184-.518.76-1.09 1.28-1.271l1.58-.652c.496-.238 1.308-.24 1.805-.004l3.944 1.875c.497.236 1.238.129 1.648-.238l2.017-2.017c.367-.41.474-1.151.238-1.648l-1.875-3.944c-.236-.497-.234-1.309.004-1.804l.652-1.581c.18-.519.752-1.095 1.27-1.28l4.13-1.469c.518-.184.981-.783 1.028-1.331 0 0 .052-.605.052-1.424s-.053-1.427-.053-1.427z" id="Fill-7" fill="#FFFFFE"/></g></g><metadata><rdf:RDF xmlns:rdf="http://www.w3.org/1999/02/22-rdf-syntax-ns#" xmlns:rdfs="http://www.w3.org/2000/01/rdf-schema#" xmlns:dc="http://purl.org/dc/elements/1.1/"><rdf:Description about="https://iconscout.com/legal#licenses" dc:title="gear" dc:description="gear" dc:publisher="Iconscout" dc:date="2017-09-25" dc:format="image/svg+xml" dc:language="en"><dc:creator><rdf:Bag><rdf:li>Elegant Themes</rdf:li></rdf:Bag></dc:creator></rdf:Description></rdf:RDF></metadata></svg>